<svg width="38" height="26" viewBox="0 0 38 26" fill="none" xmlns="http://www.w3.org/2000/svg">
<g clip-path="url(#clip0_11_1675)">
<path d="M15.4375 4.1496V6.1269H37.9792C37.9478 5.48925 37.8801 4.68312 37.6378 4.1496" fill="#EC1C24"/>
<path d="M36.575 2.1723H15.4375V4.1496H37.6378C37.3968 3.41191 37.0381 2.73916 36.575 2.1723Z" fill="#E6E7E8"/>
<path d="M32.0625 0.195H15.4375V2.1723H36.575C35.584 0.94965 33.953 0.195 32.0625 0.195Z" fill="#EC1C24"/>
<path d="M37.9792 6.1269H15.4375V8.1042H38V6.7862C38 6.66861 37.9923 6.55395 37.9887 6.43871C37.9863 6.40712 37.9828 6.3258 37.9792 6.1269Z" fill="#E6E7E8"/>
<path d="M15.4375 10.0815H38V8.1042H15.4375V10.0815Z" fill="#EC1C24"/>
<path d="M15.4375 12.0588H38V10.0815H15.4375V12.0588Z" fill="#E6E7E8"/>
<path d="M15.4375 12.0588H38V14.0361H15.4375V12.0588Z" fill="#EC1C24"/>
<path d="M0 14.0361V16.0134H38V14.0361H15.4375H0Z" fill="#E6E7E8"/>
<path d="M0 16.0134H38V17.9907H0V16.0134Z" fill="#EC1C24"/>
<path d="M0.00296875 19.2069C0.00296875 19.2069 -0.002375 19.686 0.011875 19.968H37.9881C38.0047 19.679 37.997 19.2069 37.997 19.2069L38 17.9907H0L0.00296875 19.2069Z" fill="#E6E7E8"/>
<path d="M5.93736 25.935H32.0624C33.9582 25.935 35.534 25.2564 36.6105 23.9226H1.3833C2.4948 25.2856 4.1003 25.935 5.93439 25.935" fill="#EC1C24"/>
<path d="M1.38632 23.9226H36.6135C37.083 23.3346 37.4338 22.6634 37.6466 21.9453H0.359131C0.576376 22.6611 0.925587 23.3314 1.38929 23.9226" fill="#E6E7E8"/>
<path d="M0.356338 21.9453H37.6438C37.8382 21.3021 37.9538 20.6383 37.9882 19.968H0.0119629C0.0707441 20.6443 0.125369 21.155 0.356338 21.9453Z" fill="#EC1C24"/>
<path d="M15.4375 0.195H5.9375C2.00272 0.195 0 3.07612 0 6.63V14.0361H15.4375V0.195Z" fill="#176496"/>
<path d="M1.66135 3.69096L1.98435 3.44643L2.30676 3.69096L2.18147 3.29784L2.50269 3.05741H2.10607L1.98316 2.66253L1.86085 3.05741H1.46482L1.78722 3.29784L1.66135 3.69096ZM3.79529 3.69096L4.11829 3.44643L4.44069 3.69096L4.31601 3.29784L4.63663 3.05741H4.2406L4.11769 2.66253L3.99538 3.05741H3.59816L3.92057 3.29784L3.79529 3.69096ZM6.14951 3.69096L6.47191 3.44643L6.79491 3.69096L6.66963 3.29784L6.99026 3.05741H6.5966L6.47191 2.66253L6.34901 3.05741H5.95535L6.27419 3.29784L6.14951 3.69096ZM8.48651 3.69096L8.80891 3.44643L9.13191 3.69096L9.00723 3.29784L9.32785 3.05741H8.93004L8.80891 2.66253L8.6866 3.05741H8.28998L8.61179 3.29784L8.48651 3.69096ZM10.8318 3.69096L11.1548 3.44643L11.4772 3.69096L11.3525 3.29784L11.6738 3.05741H11.2765L11.1542 2.66253L11.0319 3.05741H10.6359L10.9565 3.29784L10.8318 3.69096ZM2.79719 4.71764L3.1196 4.47369L3.44201 4.71764L3.31791 4.3251L3.63854 4.08467H3.24191L3.11901 3.69038L2.99847 4.08467H2.60066L2.92188 4.3251L2.79719 4.71764ZM4.93172 4.71764L5.25413 4.47369L5.57654 4.71764L5.45185 4.3251L5.77248 4.08467H5.37348L5.25413 3.69038L5.13123 4.08467H4.73519L5.05641 4.3251L4.93172 4.71764ZM7.28594 4.71764L7.60776 4.47369L7.93016 4.71764L7.80548 4.3251L8.12669 4.08467H7.73066L7.60776 3.69038L7.48485 4.08467H7.08823L7.40944 4.3251L7.28594 4.71764ZM9.62176 4.71764L9.94476 4.47369L10.2678 4.71764L10.1413 4.3251L10.4631 4.08467H10.0671L9.94416 3.69038L9.82244 4.08467H9.42582L9.74704 4.3251L9.62176 4.71764ZM11.97 4.71764L12.2901 4.47369L12.6125 4.71764L12.4866 4.3251L12.8084 4.08467H12.413L12.2895 3.69038L12.1678 4.08467H11.7711L12.0924 4.3251L11.97 4.71764ZM13.2923 3.69096L13.6147 3.44643L13.9377 3.69096L13.8124 3.29784L14.1331 3.05741H13.7394L13.6141 2.66253L13.4918 3.05741H13.0922L13.417 3.29784L13.2923 3.69096ZM1.62988 11.9067L1.95288 11.6651L2.27529 11.9067L2.1506 11.5171L2.47122 11.2761L2.07519 11.2772L1.95169 10.883L1.83057 11.2772L1.43335 11.2761L1.75457 11.5171L1.62988 11.9067ZM3.76441 11.9067L4.08682 11.6651L4.40982 11.9067L4.28454 11.5171L4.60516 11.2761L4.20972 11.2772L4.08622 10.883L3.96451 11.2772L3.56848 11.2761L3.8891 11.5171L3.76441 11.9067ZM6.11863 11.9067L6.44104 11.6651L6.76404 11.9067L6.63876 11.5171L6.95938 11.2761L6.56098 11.2772L6.44044 10.883L6.31813 11.2772L5.9221 11.2761L6.24332 11.5171L6.11863 11.9067ZM8.45563 11.9067L8.77804 11.6651L9.10044 11.9067L8.97754 11.5171L9.29638 11.2761L8.89976 11.2772L8.77744 10.883L8.65513 11.2772L8.2591 11.2761L8.57972 11.5171L8.45563 11.9067ZM10.8004 11.9067L11.1234 11.6651L11.4464 11.9067L11.3229 11.5171L11.6417 11.2761L11.2457 11.2772L11.1228 10.883L11.001 11.2772L10.6044 11.2761L10.925 11.5171L10.8004 11.9067ZM13.2609 11.9067L13.5833 11.6651L13.9063 11.9067L13.781 11.5171L14.1022 11.2761L13.7038 11.2772L13.5827 10.883L13.4604 11.2772L13.0625 11.2761L13.3855 11.5171L13.2609 11.9067ZM1.66135 5.74548L1.98435 5.50095L2.30676 5.74548L2.18147 5.35236L2.50269 5.11193L2.10607 5.1131L1.98316 4.71764L1.86085 5.1131L1.46482 5.11193L1.78722 5.35236L1.66135 5.74548ZM3.79529 5.74548L4.11829 5.50095L4.44069 5.74548L4.31601 5.35236L4.63663 5.11193L4.2406 5.1131L4.11769 4.71764L3.99538 5.1131L3.59816 5.11193L3.92057 5.35236L3.79529 5.74548ZM6.14951 5.74548L6.47191 5.50095L6.79491 5.74548L6.66963 5.35236L6.99026 5.11193L6.5966 5.1131L6.47191 4.71764L6.34901 5.1131L5.95535 5.11193L6.27419 5.35236L6.14951 5.74548ZM8.48651 5.74548L8.80891 5.50095L9.13191 5.74548L9.00723 5.35236L9.32785 5.11193L8.93004 5.1131L8.80891 4.71764L8.6866 5.1131L8.28998 5.11193L8.61179 5.35236L8.48651 5.74548ZM10.8318 5.74548L11.1548 5.50095L11.4772 5.74548L11.3525 5.35236L11.6738 5.11193L11.2765 5.1131L11.1542 4.71764L11.0319 5.1131L10.6359 5.11193L10.9565 5.35236L10.8318 5.74548ZM2.79719 6.77274L3.1196 6.5288L3.44201 6.77274L3.31791 6.38021L3.63854 6.1386H3.24191L3.11901 5.74548L2.99847 6.1386H2.60066L2.92188 6.38021L2.79719 6.77274ZM4.93172 6.77274L5.25413 6.5288L5.57654 6.77274L5.45185 6.38021L5.77248 6.1386H5.37348L5.25413 5.74548L5.13123 6.1386H4.73519L5.05641 6.38021L4.93172 6.77274ZM7.28594 6.77274L7.60776 6.5288L7.93016 6.77274L7.80548 6.38021L8.12669 6.1386H7.73066L7.60776 5.74548L7.48485 6.1386H7.08823L7.40944 6.38021L7.28594 6.77274ZM9.62176 6.77274L9.94476 6.5288L10.2678 6.77274L10.1413 6.38021L10.4631 6.1386H10.0671L9.94416 5.74548L9.82244 6.1386H9.42582L9.74704 6.38021L9.62176 6.77274ZM11.97 6.77274L12.2901 6.5288L12.6125 6.77274L12.4866 6.38021L12.8084 6.1386H12.413L12.2895 5.74548L12.1678 6.1386H11.7711L12.0924 6.38021L11.97 6.77274ZM13.2923 5.74548L13.6147 5.50095L13.9377 5.74548L13.8124 5.35236L14.1331 5.11193L13.7394 5.1131L13.6141 4.71764L13.4918 5.1131L13.0922 5.11193L13.417 5.35236L13.2923 5.74548ZM1.62988 7.8L1.95288 7.55606L2.27529 7.8L2.15001 7.40805L2.47122 7.16703L2.0746 7.1682L1.95169 6.77274L1.83057 7.1682L1.43335 7.16703L1.75457 7.40805L1.62988 7.8ZM3.76441 7.8L4.08682 7.55606L4.40982 7.8L4.28454 7.40805L4.60516 7.16703L4.20972 7.1682L4.08622 6.77274L3.96451 7.1682L3.56848 7.16703L3.88851 7.40805L3.76441 7.8ZM6.11863 7.8L6.44104 7.55606L6.76344 7.8L6.63876 7.40805L6.95938 7.16703L6.56098 7.1682L6.44044 6.77274L6.31813 7.1682L5.9221 7.16703L6.24332 7.40805L6.11863 7.8ZM8.45563 7.8L8.77744 7.55606L9.10044 7.8L8.97754 7.40805L9.29638 7.16703L8.89976 7.1682L8.77744 6.77274L8.65513 7.1682L8.2591 7.16703L8.57972 7.40805L8.45563 7.8ZM10.8004 7.8L11.1234 7.55606L11.4458 7.8L11.3229 7.40805L11.6417 7.16703L11.2451 7.1682L11.1228 6.77274L11.001 7.1682L10.6044 7.16703L10.925 7.40805L10.8004 7.8ZM2.76572 8.82726L3.08813 8.5839L3.41054 8.82726L3.28644 8.43765L3.60647 8.19546H3.20985L3.08754 7.8L2.96582 8.19546H2.56919L2.89041 8.43765L2.76572 8.82726ZM4.90026 8.82726L5.22266 8.5839L5.54507 8.82726L5.42038 8.43765L5.74101 8.19546H5.34379L5.22207 7.8L5.09976 8.19546H4.70313L5.02494 8.43765L4.90026 8.82726ZM7.25507 8.82726L7.57629 8.5839L7.89929 8.82726L7.77223 8.43765L8.09522 8.19546H7.69919L7.57629 7.8L7.45397 8.19546H7.05735L7.37857 8.43765L7.25507 8.82726ZM9.5891 8.82726L9.91329 8.5839L10.2363 8.82726L10.1116 8.43765L10.4316 8.19546H10.0356L9.91269 7.8L9.79098 8.19546H9.39435L9.71557 8.43765L9.5891 8.82726ZM11.9344 8.82726L12.2586 8.5839L12.5816 8.82726L12.4563 8.43765L12.7781 8.19546H12.3821L12.2586 7.8L12.1363 8.19546H11.7397L12.0609 8.43765L11.9344 8.82726ZM13.2609 7.8L13.5833 7.55606L13.9057 7.8L13.781 7.40805L14.1022 7.16703L13.7038 7.1682L13.5827 6.77274L13.4604 7.1682L13.0625 7.16703L13.3855 7.40805L13.2609 7.8ZM1.62988 9.85511L1.95288 9.6135L2.27529 9.85511L2.15001 9.46257L2.47122 9.22155L2.0746 9.22272L1.95169 8.82726L1.83057 9.22272L1.43335 9.22155L1.75457 9.46257L1.62988 9.85511ZM3.76441 9.85511L4.08682 9.6135L4.40982 9.85511L4.28454 9.46257L4.60516 9.22155L4.20972 9.22272L4.08622 8.82726L3.96451 9.22272L3.56848 9.22155L3.88851 9.46257L3.76441 9.85511ZM6.11863 9.85511L6.44104 9.6135L6.76344 9.85511L6.63876 9.46257L6.95938 9.22155L6.56098 9.22272L6.44044 8.82726L6.31813 9.22272L5.9221 9.22155L6.24332 9.46257L6.11863 9.85511ZM8.45563 9.85511L8.77744 9.6135L9.10044 9.85511L8.97754 9.46257L9.29638 9.22155L8.89976 9.22272L8.77744 8.82726L8.65513 9.22272L8.2591 9.22155L8.57972 9.46257L8.45563 9.85511ZM10.8004 9.85511L11.1234 9.6135L11.4458 9.85511L11.3229 9.46257L11.6417 9.22155L11.2451 9.22272L11.1228 8.82726L11.001 9.22272L10.6044 9.22155L10.925 9.46257L10.8004 9.85511ZM2.76572 10.883L3.08813 10.6384L3.41054 10.883L3.28644 10.4898L3.60647 10.2512H3.20985L3.08754 9.85511L2.96582 10.2512H2.56919L2.89041 10.4898L2.76572 10.883ZM4.90026 10.883L5.22266 10.6384L5.54507 10.883L5.42038 10.4898L5.74101 10.2512H5.34379L5.22207 9.85511L5.09976 10.2512H4.70313L5.02494 10.4898L4.90026 10.883ZM7.25507 10.883L7.57629 10.6384L7.89929 10.883L7.77223 10.4898L8.09522 10.2512H7.69919L7.57629 9.85511L7.45397 10.2512H7.05735L7.37857 10.4898L7.25507 10.883ZM9.5891 10.883L9.91329 10.6384L10.2363 10.883L10.1116 10.4898L10.4316 10.2512H10.0356L9.91269 9.85511L9.79098 10.2512H9.39435L9.71557 10.4898L9.5891 10.883ZM11.9344 10.883L12.2586 10.6384L12.5816 10.883L12.4563 10.4898L12.7781 10.2512H12.3821L12.2586 9.85511L12.1363 10.2512H11.7397L12.0609 10.4898L11.9344 10.883ZM13.2609 9.85511L13.5833 9.6135L13.9057 9.85511L13.781 9.46257L14.1022 9.22155L13.7038 9.22272L13.5827 8.82726L13.4604 9.22272L13.0625 9.22155L13.3855 9.46257L13.2609 9.85511Z" fill="white"/>
</g>
<defs>
<clipPath id="clip0_11_1675">
<rect width="38" height="26" fill="white"/>
</clipPath>
</defs>
</svg>
