<svg width="49" height="60" viewBox="0 0 49 60" fill="none" xmlns="http://www.w3.org/2000/svg">
<g clip-path="url(#clip0_11_1410)">
<path d="M45.1293 59.8192H48.1034V53.8554H45.1293V50.8734C45.1248 47.2507 44.1813 43.6913 42.3914 40.5444C40.6015 37.3974 38.0265 34.7708 34.9191 32.9222C33.8632 32.296 33.2327 31.2911 33.2327 30.2355V29.7644C33.2327 28.7088 33.8632 27.7039 34.9161 27.0806C38.0225 25.2299 40.5968 22.6026 42.387 19.4555C44.1772 16.3084 45.1221 12.7494 45.1293 9.12645V6.14452H48.1034V0.180664H0.517212V6.14452H3.49135V9.12645C3.49855 12.7494 4.44346 16.3084 6.23367 19.4555C8.02387 22.6026 10.5981 25.2299 13.7045 27.0806C14.7574 27.7039 15.3879 28.7058 15.3879 29.7644V30.2355C15.3879 31.2911 14.7574 32.296 13.7045 32.9193C10.5981 34.7699 8.02387 37.3973 6.23367 40.5444C4.44346 43.6915 3.49855 47.2505 3.49135 50.8734V53.8554H0.517212V59.8192H45.1293ZM39.181 6.14452V9.12645C39.1776 12.3538 38.1298 15.4929 36.195 18.0722H12.4257C10.4909 15.4929 9.44306 12.3538 9.43963 9.12645V6.14452H39.181ZM16.7263 38.0571C19.6142 36.3455 21.3362 33.4232 21.3362 30.2355V29.9999H27.2845V30.2355C27.2845 33.4202 29.0065 36.3455 31.8973 38.0571C34.5697 39.6517 36.6737 42.0491 37.911 44.9096H10.7096C11.9477 42.0487 14.0528 39.6512 16.7263 38.0571Z" fill="#000A35"/>
</g>
<defs>
<clipPath id="clip0_11_1410">
<rect width="48.6207" height="60" fill="white"/>
</clipPath>
</defs>
</svg>
