<svg width="61" height="60" viewBox="0 0 61 60" fill="none" xmlns="http://www.w3.org/2000/svg">
<g clip-path="url(#clip0_11_1406)">
<path d="M3.59519 0L0.565186 3.03L5.90288 12.2608L9.36442 11.7531L30.4936 32.8846L28.6913 34.6154C27.7683 35.5385 27.7683 36.9369 28.6913 37.86L29.6283 38.7992C30.5513 39.7223 31.9636 39.7223 32.656 38.7992L35.3975 41.5385C35.1667 42.9231 35.3975 44.5685 36.5513 45.7223L49.0267 58.1262C51.5652 60.6646 55.719 60.6646 58.2575 58.1262C61.2575 55.3569 61.2298 51.2169 58.6913 48.6785L46.2875 36.2008C45.1336 35.0469 43.4883 34.5854 42.1036 35.0469L39.0736 32.3077C39.766 31.3846 39.766 29.9723 39.0736 29.2777L38.2083 28.4146C37.9985 28.1958 37.7466 28.0218 37.4678 27.9029C37.189 27.7839 36.8891 27.7226 36.586 27.7226C36.2829 27.7226 35.9829 27.7839 35.7041 27.9029C35.4253 28.0218 35.1734 28.1958 34.9636 28.4146L33.4498 29.9285L12.3206 8.79923L12.8236 5.33769L3.59519 0ZM48.5952 0.0715385C44.0421 -0.306923 38.0052 2.71154 35.1806 5.33538C31.7052 8.81077 32.2729 13.3546 35.0352 17.7415L30.1336 22.6454L33.5952 26.5385C35.4413 24.9231 38.1644 24.9231 40.0106 26.5385L40.9498 27.4754L41.1667 27.6923L43.186 25.6731C47.3583 28.1262 51.7013 28.4792 55.0129 25.1677C58.2436 22.1677 61.7467 14.7692 60.1313 10.3846L53.6421 17.0908C52.719 18.0138 51.3206 18.0138 50.3975 17.0908L43.689 10.3846C43.4703 10.1748 43.2962 9.92297 43.1773 9.64417C43.0584 9.36537 42.9971 9.06541 42.9971 8.76231C42.9971 8.45921 43.0584 8.15924 43.1773 7.88045C43.2962 7.60165 43.4703 7.34979 43.689 7.14L50.3998 0.433846C49.8229 0.230769 49.246 0.126923 48.5952 0.0715385ZM23.2106 28.8462L14.8429 37.2115C13.9436 37.0126 13.0247 36.9158 12.1036 36.9231C5.64211 36.9231 0.565186 42 0.565186 48.4615C0.565186 54.9231 5.64211 60 12.1036 60C18.5652 60 23.6421 54.9231 23.6421 48.4615C23.6421 47.2777 23.4552 46.14 23.1367 45.0715L28.0406 40.1677L27.3206 39.2308C25.4744 37.3846 25.4883 34.5877 27.1036 32.7392L23.2106 28.8462ZM41.0952 39.3762C41.3836 39.3762 41.656 39.4315 41.8867 39.6646L55.5183 53.2938C55.9798 53.7554 55.9798 54.4892 55.5183 54.9508C55.0567 55.4123 54.3183 55.4123 53.8567 54.9508L40.2298 41.3215C39.7683 40.86 39.7683 40.1262 40.2298 39.6646C40.4606 39.4338 40.8067 39.3762 41.0952 39.3762ZM13.6913 42.4731L18.0898 46.8738L16.5021 52.8577L10.5183 54.4454L6.11749 50.0446L7.70519 44.0608L13.6913 42.4731Z" fill="#000A35"/>
</g>
<defs>
<clipPath id="clip0_11_1406">
<rect width="60" height="60" fill="white" transform="translate(0.565186)"/>
</clipPath>
</defs>
</svg>
