<svg width="64" height="60" viewBox="0 0 64 60" fill="none" xmlns="http://www.w3.org/2000/svg">
<g clip-path="url(#clip0_223_4)">
<path d="M29.5197 41.2782L28.9901 54.2726L28.9195 55.0494L14.089 54.0254C13.2415 53.9548 12.4529 53.584 11.7231 52.9131C10.9934 52.2422 10.4402 51.4713 10.0635 50.6003C9.80458 49.9647 9.63391 49.3173 9.55152 48.6582C9.46913 47.999 9.51621 47.234 9.69277 46.363C9.86932 45.492 10.0106 44.8446 10.1165 44.4209C10.2224 43.9972 10.4755 43.2439 10.8757 42.161C11.2759 41.0781 11.4995 40.4543 11.5466 40.2895C13.3827 40.572 19.3738 40.9016 29.5197 41.2782ZM15.8545 20.5861L22.2104 33.9689L17.0197 30.7203C15.5367 32.4152 14.2243 34.116 13.0826 35.8227C11.9409 37.5294 11.0875 39.0007 10.5226 40.2366C9.9576 41.4724 9.49267 42.5847 9.12779 43.5734C8.76292 44.5621 8.54517 45.3037 8.47455 45.798L8.3333 46.5395L1.62426 33.9336C1.22408 33.3215 1.01221 32.6624 0.98867 31.9562C0.96513 31.25 1.03575 30.6968 1.20053 30.2966L1.48302 29.661C2.30694 28.1779 3.64875 25.9651 5.50844 23.0226L0.564941 19.9859L15.8545 20.5861ZM59.322 38.8418L52.6836 51.5183C52.4011 52.201 51.9715 52.7483 51.3947 53.1603C50.818 53.5723 50.306 53.8135 49.8587 53.8842L49.2231 54.0254C47.5518 54.1902 44.9741 54.3314 41.4901 54.4491L41.7726 60.2401L33.6511 47.2811L41.1017 34.4986L41.3488 40.6073C45.3507 40.984 48.6817 41.0428 51.3418 40.7839C54.0019 40.5249 56.0028 40.1365 57.3446 39.6186L59.322 38.8418ZM31.6031 6.21467C30.4967 7.69772 27.3776 12.8178 22.2457 21.5748L11.0522 14.9717L10.3813 14.548L18.3262 1.97738C18.7971 1.24763 19.5033 0.717968 20.4449 0.388401C21.3865 0.0588341 22.3281 -0.0588684 23.2697 0.0352936C23.8347 0.0823745 24.4056 0.223618 24.9823 0.459022C25.5591 0.694427 26.0534 0.941602 26.4654 1.20055C26.8773 1.45949 27.3658 1.84791 27.9308 2.3658C28.4957 2.88369 28.9195 3.28977 29.2019 3.58402C29.4844 3.87828 29.9082 4.3432 30.4731 4.9788C31.0381 5.61439 31.4148 6.02635 31.6031 6.21467ZM54.7316 17.0551L62.2175 29.8729C62.6412 30.7439 62.7883 31.6384 62.6589 32.5565C62.5294 33.4746 62.2057 34.3456 61.6878 35.1695C61.3818 35.6403 60.9934 36.0758 60.5226 36.476C60.0518 36.8762 59.6045 37.2057 59.1808 37.4647C58.757 37.7236 58.1862 37.9826 57.4682 38.2415C56.7502 38.5005 56.197 38.6888 55.8086 38.8065C55.4202 38.9242 54.814 39.089 53.9901 39.3008C53.1662 39.5127 52.6247 39.6539 52.3658 39.7246C51.5654 38.0296 48.4463 32.8978 43.0084 24.3291L54.0607 17.4435L54.7316 17.0551ZM49.6822 9.07484L54.6963 6.14405L46.9279 19.315L32.1327 18.6087L37.4647 15.572C36.6643 13.4769 35.7815 11.5231 34.8164 9.71043C33.8512 7.89782 32.9625 6.44419 32.1504 5.34956C31.3382 4.25493 30.5791 3.31331 29.8729 2.5247C29.1666 1.73609 28.6134 1.18878 28.2132 0.882751L27.613 0.423712L41.9138 0.459022C42.6436 0.388401 43.3262 0.511988 43.9618 0.829785C44.5974 1.14758 45.0565 1.48303 45.339 1.83614L45.7274 2.3658C46.6454 3.80177 47.9637 6.03812 49.6822 9.07484Z" fill="#000A35"/>
</g>
<defs>
<clipPath id="clip0_223_4">
<rect width="63.0508" height="60" fill="white"/>
</clipPath>
</defs>
</svg>
