<svg width="51" height="60" viewBox="0 0 51 60" fill="none" xmlns="http://www.w3.org/2000/svg">
<path d="M21.5769 7.5H13.7308C11.9276 7.5 10.1421 7.83949 8.47623 8.49908C6.81034 9.15867 5.29667 10.1255 4.02165 11.3442C2.74663 12.563 1.73523 14.0099 1.04519 15.6023C0.355156 17.1947 0 18.9014 0 20.625C0 22.3486 0.355156 24.0553 1.04519 25.6477C1.73523 27.2401 2.74663 28.687 4.02165 29.9058C5.29667 31.1245 6.81034 32.0913 8.47623 32.7509C10.1421 33.4105 11.9276 33.75 13.7308 33.75H21.5769V45H3.92308V52.5H21.5769V60H29.4231V52.5H37.2692C40.9109 52.5 44.4033 51.1172 46.9783 48.6558C49.5534 46.1944 51 42.856 51 39.375C51 35.894 49.5534 32.5556 46.9783 30.0942C44.4033 27.6328 40.9109 26.25 37.2692 26.25H29.4231V15H47.0769V7.5H29.4231V0H21.5769V7.5ZM29.4231 33.75H37.2692C38.8299 33.75 40.3267 34.3426 41.4303 35.3975C42.5339 36.4524 43.1538 37.8832 43.1538 39.375C43.1538 40.8668 42.5339 42.2976 41.4303 43.3525C40.3267 44.4074 38.8299 45 37.2692 45H29.4231V33.75ZM21.5769 26.25H13.7308C12.958 26.25 12.1928 26.1045 11.4788 25.8218C10.7649 25.5391 10.1162 25.1248 9.56972 24.6025C9.02328 24.0801 8.58982 23.4601 8.29409 22.7776C7.99836 22.0951 7.84615 21.3637 7.84615 20.625C7.84615 19.8863 7.99836 19.1549 8.29409 18.4724C8.58982 17.7899 9.02328 17.1699 9.56972 16.6475C10.1162 16.1252 10.7649 15.7109 11.4788 15.4282C12.1928 15.1455 12.958 15 13.7308 15H21.5769V26.25Z" fill="#000A35"/>
</svg>
