<svg width="60" height="60" viewBox="0 0 60 60" fill="none" xmlns="http://www.w3.org/2000/svg">
<g clip-path="url(#clip0_11_1429)">
<path d="M53.5296 59.6589L35.6662 41.6163L42.5179 34.6958L60.3813 52.7384L53.5296 59.6589ZM8.50417 59.6589L1.65247 52.7384L24.1652 29.9998L18.6186 24.3975L16.3347 26.7043L12.1747 22.5026V29.2583L9.89082 31.5651L0.0211182 21.5964L2.30502 19.2896H8.99358L4.91519 15.1702L16.4978 3.47137C17.5854 2.37289 18.7545 1.57649 20.0052 1.08217C21.2559 0.58785 22.5338 0.340691 23.8389 0.340691C25.144 0.340691 26.4219 0.58785 27.6726 1.08217C28.9233 1.57649 30.0924 2.37289 31.18 3.47137L23.6758 11.0509L27.7542 15.1702L25.4703 17.4771L31.0169 23.0793L38.358 15.6646C38.1405 15.0604 37.9643 14.4288 37.8294 13.7697C37.6946 13.1106 37.626 12.4515 37.6239 11.7924C37.6239 8.55187 38.7256 5.81884 40.929 3.5933C43.1324 1.36777 45.8372 0.256107 49.0434 0.258304C49.859 0.258304 50.6345 0.340691 51.3697 0.505463C52.1049 0.670236 52.852 0.917396 53.6112 1.24694L45.5359 9.40319L51.4088 15.335L59.484 7.17876C59.8647 7.9477 60.1235 8.70236 60.2606 9.44274C60.3976 10.1831 60.465 10.9663 60.4629 11.7924C60.4629 15.0329 59.3622 17.766 57.161 19.9915C54.9597 22.217 52.2539 23.3287 49.0434 23.3265C48.3908 23.3265 47.7383 23.2716 47.0857 23.1617C46.4332 23.0519 45.8078 22.8596 45.2097 22.585L8.50417 59.6589Z" fill="#000A35"/>
</g>
<defs>
<clipPath id="clip0_11_1429">
<rect width="60" height="60" fill="white"/>
</clipPath>
</defs>
</svg>
