<?xml version="1.0" encoding="UTF-8"?>
<svg id="Camada_2" data-name="Camada 2" xmlns="http://www.w3.org/2000/svg" viewBox="0 0 970.34 213.08">
  <defs>
    <style>
      .cls-1 {
        fill: #62eaf9;
      }

      .cls-1, .cls-2 {
        stroke-width: 0px;
      }

      .cls-2 {
        fill: #fff;
      }
    </style>
  </defs>
  <g id="Camada_1-2" data-name="Camada 1">
    <g>
      <path class="cls-2" d="M347.43,63.72l.5,4.95c.1.97.11,3.06-.35,7.52-.38,3.64-1.12,7.73-2.18,12.16l-16.5,68.49-16.3-68.5c-2.42-9.81-3.2-17.15-2.32-21.81l.52-2.8h-37.13l3.47,5.78c.74,1.48,1.82,4.02,3.2,7.56,1.37,3.51,2.61,7.23,3.68,11.04l21.64,80.44c2.41,9.05,3.18,16.39,2.3,21.83l-.45,2.74h36.18l-.47-5.17c-.14-1.57-.03-4.18.35-7.78.37-3.62,1.11-7.54,2.16-11.62l21.64-80.45c2.28-8.67,5.04-15.65,8.19-20.76l2.23-3.61h-30.37Z"/>
      <path class="cls-2" d="M459.42,123.71c0-22.65-3.06-38.13-9.35-47.32-6.4-9.34-17.58-14.08-33.23-14.08s-27.74,5.01-34.53,14.9c-6.69,9.75-9.94,26.5-9.94,51.2s3.74,41.36,11.44,51.2c7.73,9.89,20.5,14.9,37.97,14.9,6.7,0,15.23-.96,25.37-2.86l1.36-.26,8.1-23.98-5.02,2.36c-7.64,3.6-16.09,5.42-25.1,5.42-4.28,0-7.79-.44-10.44-1.3-2.52-.82-5.08-2.55-7.62-5.16-2.51-2.58-4.48-6.8-5.86-12.55-1.32-5.48-2.11-12.53-2.35-20.96h59.22v-11.54ZM403.45,90.9c1.97-6.33,6.22-9.28,13.39-9.28,6.22,0,9.92,2.37,11.64,7.45,1.84,5.46,2.89,14.96,3.13,28.28h-24.33l-7.12,8.38c.11-16.46,1.21-28.17,3.29-34.84Z"/>
      <path class="cls-2" d="M525.41,189.92l-1.2,3.19h35.28l-1.64-5.46c-.29-.87-.75-2.8-1.31-7.08-.45-3.49-.68-7.26-.68-11.22v-71.03c0-11.57-2.84-20.32-8.44-26-5.61-5.7-14.88-8.58-27.56-8.58h-13.8l-9,10.7v-10.7h-31.41l1.64,5.46c.29.87.75,2.8,1.31,7.09.45,3.49.69,7.26.69,11.22v81.85c0,8.93-.9,15.85-2.67,20.57l-1.2,3.2h35.29l-1.64-5.46c-.29-.87-.75-2.81-1.31-7.09-.45-3.49-.69-7.27-.69-11.22v-85.87c5.17-.6,9.28-.91,12.22-.91,12.83,0,18.8,5.6,18.8,17.63v69.15c0,8.92-.9,15.85-2.67,20.57Z"/>
      <path class="cls-2" d="M600,172.3c-.82-.99-1.8-3.16-1.8-7.9v-81.84h19.5l14.44-18.84h-25.64l-8.3,9.8v-40.84h-31.41l1.64,5.46c.29.87.75,2.8,1.31,7.09.45,3.49.69,7.26.69,11.22v7.28h-6.09l-14.44,18.84h20.54v82.08c0,9,2.09,16.04,6.2,20.93,4.27,5.08,11.71,7.54,22.74,7.54h15.19l8.16-18.84h-16.3c-3.17,0-5.33-.66-6.42-1.97Z"/>
      <g>
        <path class="cls-2" d="M646.4,51.51c4.56,0,8.46-1.63,11.57-4.83,3.1-3.18,4.67-7.1,4.67-11.64s-1.57-8.45-4.67-11.64c-3.12-3.21-7.02-4.83-11.57-4.83s-8.46,1.63-11.57,4.83c-3.1,3.19-4.67,7.1-4.67,11.64s1.57,8.46,4.67,11.64c3.11,3.21,7.01,4.83,11.57,4.83Z"/>
        <path class="cls-2" d="M629.84,189.92l-1.2,3.2h35.29l-1.64-5.46c-.29-.87-.75-2.81-1.31-7.09-.45-3.49-.69-7.27-.69-11.22V63.72h-31.41l1.64,5.46c.29.87.75,2.8,1.31,7.09.45,3.49.69,7.26.69,11.22v81.85c0,8.93-.9,15.85-2.67,20.57Z"/>
      </g>
      <path class="cls-2" d="M671.68,18.56h31.41v150.78c0,3.95.23,7.73.69,11.22.56,4.28,1.02,6.22,1.31,7.09l1.64,5.46h-35.29l1.2-3.2c1.77-4.73,2.67-11.65,2.67-20.57V34.33c0-3.96-.23-7.73-.69-11.22,0,0-.32-4.72-2.95-4.55"/>
      <path class="cls-2" d="M795.99,78.11h0c-6.63-10.48-18.97-15.8-36.69-15.8s-30.07,5.32-36.69,15.8c-6.5,10.28-9.66,26.73-9.66,50.3s3.16,40.03,9.66,50.31c6.62,10.48,18.97,15.8,36.69,15.8s30.07-5.32,36.69-15.8c6.5-10.28,9.66-26.74,9.66-50.31s-3.16-40.02-9.66-50.3ZM740.96,110.86c.15-4.12.61-8.53,1.38-13.11.73-4.36,1.72-7.54,2.95-9.46,1.19-1.85,2.97-3.45,5.28-4.74,2.3-1.28,5.23-1.93,8.72-1.93s6.43.65,8.72,1.93c2.32,1.3,4.09,2.89,5.28,4.74,1.23,1.91,2.22,5.1,2.95,9.46.76,4.59,1.23,9,1.38,13.11.15,4.23.23,10.14.23,17.55s-.08,13.32-.23,17.55c-.15,4.11-.62,8.52-1.38,13.11-.73,4.37-1.72,7.55-2.95,9.46-1.19,1.85-2.97,3.45-5.28,4.74-2.29,1.28-5.23,1.93-8.72,1.93s-6.43-.65-8.73-1.93c-2.31-1.29-4.09-2.88-5.28-4.74-1.23-1.91-2.22-5.09-2.95-9.46-.77-4.58-1.23-8.99-1.38-13.11-.15-4.16-.23-10.07-.23-17.55s.08-13.39.23-17.55Z"/>
      <path class="cls-1" d="M893.22,188.22c-.43-1.53-.85-3.89-1.27-7.14-.48-3.66-.72-7.61-.72-11.74v-69.62c0-5.48-.46-10.05-1.36-13.58-.87-3.41-2.61-6.67-5.18-9.68-2.51-2.94-6.38-5.13-11.52-6.53-5.33-1.44-12.22-2.18-20.5-2.18h-21.87l-7.8,13.06.95-.15c2.85-.47,6.73-.95,11.51-1.42,4.82-.47,9.27-.71,13.22-.71,6.9,0,12.44,1.4,16.47,4.17,4.23,2.91,6.37,8.47,6.37,16.55v62.1c0,12.02-6.19,18.37-17.9,18.37-7.5,0-12.62-2.21-15.2-6.58-2.45-4.14-3.64-10.69-3.64-20.02s1.17-15.69,3.56-19.37c2.51-3.86,6.47-5.82,11.75-5.82,3.32,0,5.94.35,7.95,1.06l9.46-11.83h-14.12c-14.06,0-24.07,2.85-29.76,8.46-5.68,5.61-8.56,14.31-8.56,25.86,0,13.7,2.23,23.78,6.63,29.96,4.27,6.01,12,9.06,22.99,9.06,5.95,0,12.39-.78,19.15-2.31,7.1-1.61,11.6-2.39,13.78-2.39,4.78,0,10.02.82,15.61,2.43Z"/>
      <g>
        <path class="cls-1" d="M955.23,67.75c-3.42,0-6.44.82-8.98,2.44-2.47,1.58-5.78,4.53-9.86,8.79,3.29-.31,6.29-.46,8.96-.46,7.13,0,13.12.95,17.83,2.82l7.16-13.59h-15.11Z"/>
        <path class="cls-1" d="M934.58,188.87c-.5-1.49-.98-4.05-1.47-7.79-.48-3.67-.72-7.62-.72-11.74v-101.59h-21.96l.06.2c.49,1.48.98,4.05,1.47,7.79.48,3.66.72,7.61.72,11.74v81.85c0,8.12-.73,14.74-2.18,19.74h24.15l-.06-.2Z"/>
      </g>
    </g>
    <g>
      <path class="cls-2" d="M80.03,3.83c-.8,1.03-1.44,1.85-2.07,2.67-8.02,10.47-16.56,20.6-23.93,31.51-9.23,13.67-14.5,29.18-18.14,45.23-.72,3.16-.17,5.85,1.99,8.53,8.84,10.94,19.39,19.71,31.93,26.08.58.29,1.16.59,1.76.83.24.1.53.04.67.05.83-7.04,1.39-14.06,2.51-20.99,5.09-31.26,20.9-55.76,46.84-73.87,3.73-2.61,7.54-4.95,11.42-7.04,6.29-3.39,5-12.86-1.98-14.4-7.29-1.61-14.93-2.43-22.9-2.43-10.03,0-19.51,1.33-28.48,3.83h.37Z"/>
      <path class="cls-1" d="M210.5,79.76c-1.03-.8-1.85-1.44-2.67-2.07-10.47-8.02-20.6-16.56-31.51-23.93-13.67-9.23-29.18-14.5-45.23-18.14-3.16-.72-5.85-.17-8.53,1.99-10.94,8.84-19.71,19.39-26.08,31.93-.29.58-.59,1.16-.83,1.76-.1.24-.04.53-.05.67,7.04.83,14.06,1.39,20.99,2.51,31.26,5.09,55.76,20.9,73.87,46.84,2.61,3.73,4.95,7.54,7.04,11.42,3.39,6.29,12.86,5,14.4-1.98,1.61-7.29,2.43-14.93,2.43-22.9,0-10.03-1.33-19.51-3.83-28.48v.37Z"/>
      <path class="cls-2" d="M134.3,209.25c.8-1.03,1.44-1.85,2.07-2.67,8.02-10.47,16.56-20.6,23.93-31.51,9.23-13.67,14.5-29.18,18.14-45.23.72-3.16.17-5.85-1.99-8.53-8.84-10.94-19.39-19.71-31.93-26.08-.58-.29-1.16-.59-1.76-.83-.24-.1-.53-.04-.67-.05-.83,7.04-1.39,14.06-2.51,20.99-5.09,31.26-20.9,55.76-46.84,73.87-3.73,2.61-7.54,4.95-11.42,7.04-6.29,3.39-5,12.86,1.98,14.4,7.29,1.61,14.93,2.43,22.9,2.43,10.03,0,19.51-1.33,28.48-3.83h-.37Z"/>
      <path class="cls-1" d="M3.83,133.32c1.03.8,1.85,1.44,2.67,2.07,10.47,8.02,20.6,16.56,31.51,23.93,13.67,9.23,29.18,14.5,45.23,18.14,3.16.72,5.85.17,8.53-1.99,10.94-8.84,19.71-19.39,26.08-31.93.29-.58.59-1.16.83-1.76.1-.24.04-.53.05-.67-7.04-.83-14.06-1.39-20.99-2.51-31.26-5.09-55.76-20.9-73.87-46.84-2.61-3.73-4.95-7.54-7.04-11.42-3.39-6.29-12.86-5-14.4,1.98-1.61,7.29-2.43,14.93-2.43,22.9,0,10.03,1.33,19.51,3.83,28.48v-.37Z"/>
    </g>
  </g>
</svg>