<svg xmlns="http://www.w3.org/2000/svg" viewBox="0 0 508.49 505.53"><defs><style>.cls-1{fill:#0c1220;}</style></defs><g id="Camada_2" data-name="Camada 2"><g id="Camada_1-2" data-name="Camada 1"><path class="cls-1" d="M189.87,9.09c-1.89,2.43-3.41,4.38-4.91,6.34-19,24.85-39.29,48.87-56.78,74.76-21.91,32.43-34.4,69.24-43,107.3-1.69,7.49-.41,13.89,4.73,20.25,21,25.95,46,46.77,75.76,61.87,1.38.7,2.76,1.4,4.19,2a4.59,4.59,0,0,0,1.58.12c2-16.7,3.29-33.37,6-49.81C189.44,157.73,227,99.61,288.49,56.65a274.76,274.76,0,0,1,27.1-16.71c14.93-8,11.86-30.51-4.69-34.16A256.85,256.85,0,0,0,189,9.09Z"/><path class="cls-1" d="M499.41,189.23c-2.44-1.89-4.38-3.41-6.35-4.91-24.84-19-48.86-39.3-74.75-56.78-32.43-21.91-69.24-34.4-107.31-43-7.48-1.69-13.89-.41-20.24,4.73-25.95,21-46.78,46-61.88,75.76-.7,1.38-1.4,2.76-2,4.18a4.41,4.41,0,0,0-.12,1.59c16.7,2,33.36,3.29,49.81,6,74.16,12.08,132.28,49.6,175.25,111.13a272.77,272.77,0,0,1,16.7,27.1c8,14.92,30.51,11.86,34.17-4.69a257.19,257.19,0,0,0-3.31-121.91Z"/><path class="cls-1" d="M318.62,496.44c1.89-2.44,3.42-4.38,4.92-6.34,19-24.85,39.29-48.87,56.78-74.76,21.91-32.43,34.4-69.24,43-107.3,1.7-7.49.41-13.89-4.73-20.25-21-26-46-46.77-75.76-61.88-1.37-.69-2.75-1.4-4.18-2a4.64,4.64,0,0,0-1.59-.12c-2,16.7-3.28,33.36-6,49.81C319.05,347.8,281.53,405.91,220,448.88a271.62,271.62,0,0,1-27.1,16.7c-14.92,8-11.85,30.52,4.7,34.17a256.81,256.81,0,0,0,121.9-3.31Z"/><path class="cls-1" d="M9.09,316.3c2.43,1.89,4.38,3.41,6.34,4.91,24.85,19,48.87,39.29,74.76,56.78,32.43,21.91,69.24,34.4,107.3,43,7.49,1.7,13.89.42,20.25-4.73,25.95-21,46.77-46,61.87-75.75.7-1.38,1.4-2.76,2-4.19a4.59,4.59,0,0,0,.12-1.58c-16.7-2-33.37-3.29-49.81-6C157.73,316.73,99.61,279.21,56.65,217.68a275.94,275.94,0,0,1-16.71-27.1c-8-14.93-30.51-11.86-34.16,4.69A256.85,256.85,0,0,0,9.09,317.18Z"/></g></g></svg>